<mxfile host="app.diagrams.net" modified="2024-05-17T04:21:30.429Z" agent="Mozilla/5.0 (Macintosh; Intel Mac OS X 10_15_7) AppleWebKit/537.36 (KHTML, like Gecko) Chrome/124.0.0.0 Safari/537.36" version="24.4.0" etag="mLCrCi5LLkPjSHekJScv" type="github">
  <diagram name="페이지-1" id="yfz2SHaC4tDusXJw02gA">
    <mxGraphModel>
      <root>
        <mxCell id="0" />
        <mxCell id="1" parent="0" />
      </root>
    </mxGraphModel>
  </diagram>
</mxfile>
